<svg xmlns="http://www.w3.org/2000/svg"      viewBox="0 0 10240 10240"      width="256" height="256"      preserveAspectRatio="xMidYMid meet" role="img"      aria-label="EFHC">   <!-- Жёлтая монета (круг) -->   <circle cx="5120" cy="5120" r="5000" fill="#FFD400"/>    <!-- Твой логотип 1:1 (paths НЕ меняем) -->   <g transform="translate(0,10240) scale(1,-1)"      fill="#000000" stroke="none">     <path d="M4840 9633 c-639 -48 -1187 -194 -1735 -463 -535 -261 -960 -595 -1377 -1078 -195 -227 -308 -382 -470 -647 -277 -452 -455 -912 -567 -1460 -69 -344 -85 -533 -78 -930 7 -355 25 -521 93 -850 202 -980 742 -1891 1504 -2541 618 -526 1393 -883 2200 -1013 274 -45 405 -55 710 -55 324 0 465 10 726 54 688 116 1193 313 1749 683 416 278 777 620 1109 1052 390 507 679 1124 815 1740 141 640 155 1194 45 1805 -139 775 -488 1511 -1003 2120 -419 495 -893 867 -1436 1130 -532 258 -1047 397 -1660 450 -110 9 -517 11 -625 3z m738 -368 c470 -47 934 -180 1381 -395 349 -169 652 -374 978 -662 168 -149 449 -474 604 -700 213 -311 407 -701 540 -1088 70 -200 154 -587 186 -845 21 -175 24 -672 5 -845 -63 -561 -187 -990 -425 -1465 -109 -219 -243 -433 -405 -650 -139 -185 -382 -456 -532 -593 -433 -397 -917 -684 -1465 -870 -400 -136 -769 -199 -1230 -209 -459 -10 -899 50 -1292 178 -474 154 -804 314 -1170 566 -416 286 -747 622 -1065 1083 -387 562 -622 1191 -714 1915 -24 188 -24 668 -1 870 68 581 263 1164 565 1685 128 220 261 402 482 660 439 511 1109 959 1750 1168 389 127 773 200 1135 216 146 6 524 -5 673 -19z"/>     <path d="M5101 9038 c-11 -33 -90 -174 -270 -483 -52 -88 -163 -281 -249 -430 -85 -148 -162 -281 -171 -295 -10 -14 -48 -79 -86 -145 -145 -257 -329 -571 -343 -587 -13 -15 -33 -18 -125 -18 l-110 0 7 -77 c17 -188 98 -399 214 -556 l45 -61 21 27 c12 15 46 74 76 132 30 57 66 121 80 140 l25 36 570 0 c314 0 723 0 911 0 l340 -1 22 -42 c12 -24 53 -99 91 -166 l69 -124 32 44 c111 152 214 410 233 584 l6 52 -37 5 c-20 3 -71 6 -112 7 -43 0 -80 6 -86 13 -12 12 -47 72 -287 492 -66 116 -165 287 -221 380 -55 94 -127 222 -161 285 -34 63 -79 144 -102 180 -22 36 -66 112 -98 170 -32 58 -82 146 -111 195 -28 50 -73 132 -99 183 -26 50 -51 92 -55 92 -5 0 -13 -15 -19 -32z m52 -810 c13 -24 162 -281 332 -571 169 -291 310 -537 312 -548 5 -19 -8 -19 -676 -19 -374 0 -681 3 -681 6 0 8 25 53 240 424 98 168 235 405 305 528 71 122 132 222 136 222 4 0 18 -19 32 -42z"/>     <path d="M5991 8539 c96 -62 163 -123 257 -234 297 -347 456 -779 439 -1190 -7 -163 -25 -268 -72 -410 -87 -267 -255 -511 -473 -686 -103 -83 -165 -122 -302 -190 -182 -90 -323 -131 -542 -160 l-97 -13 -6 -51 c-4 -27 -5 -88 -3 -135 l3 -85 52 -19 c72 -25 173 -119 210 -194 26 -52 28 -67 29 -177 l0 -119 93 -63 c51 -35 100 -63 109 -63 10 0 39 33 67 72 185 267 522 479 850 534 133 22 381 22 490 -1 250 -52 514 -183 686 -342 342 -315 534 -721 557 -1173 l7 -135 22 125 c70 389 54 656 -59 1000 -54 168 -191 424 -304 571 -71 93 -263 288 -355 361 -147 116 -369 239 -510 283 l-56 18 28 71 c50 130 93 329 107 500 l7 81 345 0 345 0 -3 -25 c-1 -14 -28 -70 -59 -125 -31 -55 -114 -202 -185 -327 -70 -125 -128 -231 -128 -237 0 -5 29 -30 64 -55 36 -25 95 -80 132 -121 37 -41 71 -75 75 -75 4 0 10 9 14 19 20 64 410 750 664 1170 45 74 80 139 78 144 -1 5 -270 9 -682 8 -374 -1 -685 2 -691 6 -6 5 -14 29 -17 54 -10 76 -82 281 -145 412 -112 233 -226 393 -411 576 -118 115 -213 186 -394 294 -118 71 -268 147 -290 147 -5 0 19 -19 54 -41z"/>     <path d="M4155 8514 c-350 -177 -616 -406 -810 -699 -41 -60 -92 -146 -115 -190 -57 -113 -133 -312 -166 -433 l-27 -103 -669 2 c-368 1 -671 0 -673 -3 -8 -7 30 -74 279 -508 319 -553 388 -675 430 -757 20 -40 40 -73 44 -73 5 0 27 27 50 59 24 35 69 80 108 108 37 26 78 57 92 69 l25 20 -191 340 c-104 186 -192 347 -194 357 -3 18 12 19 336 18 234 -1 342 -4 347 -12 3 -6 9 -54 13 -107 11 -157 70 -413 120 -523 5 -12 -5 -18 -46 -28 -87 -22 -246 -97 -360 -169 -393 -246 -690 -642 -841 -1119 -61 -191 -71 -276 -72 -558 0 -241 1 -254 29 -375 31 -133 49 -176 40 -94 -8 60 10 235 37 367 99 492 411 911 840 1127 83 42 233 96 339 122 112 28 388 30 528 4 167 -30 375 -118 512 -215 90 -63 220 -190 296 -287 35 -45 70 -86 77 -93 12 -9 33 -1 103 40 124 72 119 65 115 161 -6 187 93 343 264 419 l45 20 -5 87 c-3 48 -8 105 -11 127 l-5 40 -115 18 c-669 103 -1149 497 -1328 1090 -77 255 -84 503 -21 779 85 378 345 783 619 966 43 29 72 52 64 52 -7 0 -53 -21 -103 -46z"/>     <path d="M4980 6419 c-212 -22 -421 -97 -585 -210 -93 -64 -121 -89 -109 -97 62 -45 176 -116 219 -137 l54 -25 68 34 c83 42 235 92 323 106 83 13 246 13 330 0 96 -16 214 -56 309 -107 l85 -45 35 17 c49 23 241 145 241 153 0 13 -116 101 -195 148 -106 62 -189 97 -310 128 -163 43 -292 52 -465 35z"/>     <path d="M3212 5214 c-66 -11 -190 -51 -334 -109 -22 -9 -23 -23 -3 -45 17 -19 7 -41 -100 -220 -35 -58 -142 -242 -238 -410 -182 -318 -295 -514 -452 -785 -188 -324 -295 -515 -295 -525 0 -8 326 -11 1080 -9 811 1 1084 -2 1094 -10 8 -7 36 -50 62 -96 l48 -83 42 29 c56 38 182 175 237 257 55 83 141 251 132 260 -4 4 -75 9 -159 12 -107 4 -158 9 -169 18 -9 8 -37 51 -63 95 -26 45 -155 267 -288 492 -363 620 -526 906 -526 927 0 21 74 174 98 201 14 16 12 17 -34 16 -27 -1 -86 -7 -132 -15z m-103 -665 c13 -24 58 -102 101 -174 42 -71 137 -231 210 -355 73 -124 170 -286 215 -360 45 -74 86 -141 90 -149 4 -8 2 -17 -6 -22 -21 -13 -1286 -12 -1294 2 -4 5 15 47 43 92 27 45 98 165 157 267 60 102 149 255 200 340 50 85 125 212 165 282 41 70 80 126 85 125 6 -2 21 -23 34 -48z"/>     <path d="M6854 5215 c-4 -10 -1 -27 6 -39 43 -66 80 -145 80 -171 0 -16 -12 -50 -26 -75 -14 -25 -36 -63 -48 -85 -64 -114 -357 -625 -416 -725 -37 -63 -134 -230 -215 -370 -81 -140 -153 -258 -159 -262 -6 -4 -82 -8 -168 -8 -122 0 -158 -3 -158 -13 0 -23 70 -158 127 -246 53 -83 184 -224 249 -269 l31 -21 47 84 c25 46 52 87 58 91 6 4 506 6 1110 5 604 -1 1098 1 1098 6 0 9 -95 177 -202 358 -36 61 -113 191 -171 290 -58 99 -137 232 -175 295 -39 63 -132 223 -207 355 -76 132 -187 325 -247 428 -99 170 -109 191 -99 213 6 14 11 27 11 30 0 3 -39 24 -87 46 -104 48 -243 85 -353 94 -71 6 -80 5 -86 -11z m420 -788 c193 -333 394 -675 485 -824 35 -56 60 -107 56 -112 -8 -14 -1273 -15 -1294 -2 -11 7 -10 14 6 37 34 49 286 472 569 957 37 64 71 117 74 117 3 0 50 -78 104 -173z"/>     <path d="M3744 5123 c-10 -55 2 -290 20 -371 71 -326 267 -645 506 -822 67 -49 227 -132 284 -146 l29 -7 -6 154 c-3 85 -8 161 -12 170 -3 8 -31 32 -63 52 -106 68 -255 241 -317 371 -60 125 -104 290 -117 441 -3 25 -15 37 -86 81 -45 28 -116 65 -157 82 l-74 30 -7 -35z"/>     <path d="M6355 5101 c-55 -27 -116 -63 -137 -80 -32 -28 -37 -37 -43 -93 -10 -88 -31 -186 -56 -260 -69 -207 -224 -412 -387 -513 l-60 -37 -8 -75 c-7 -76 -1 -249 9 -259 9 -9 138 46 221 95 106 61 289 237 360 345 144 217 224 447 240 691 8 117 -4 229 -24 233 -8 1 -60 -20 -115 -47z"/>     <path d="M4728 4682 c-69 -43 -108 -73 -108 -84 0 -10 11 -41 23 -70 152 -343 161 -738 25 -1083 -86 -219 -185 -371 -342 -523 -215 -208 -424 -317 -727 -378 -254 -51 -550 -32 -789 51 -126 44 -298 130 -380 191 -33 24 -60 40 -60 35 0 -24 266 -244 390 -323 134 -86 368 -184 540 -228 315 -80 711 -62 1028 47 41 13 75 23 76 21 1 -1 36 -61 78 -133 74 -128 167 -287 332 -567 45 -79 116 -197 156 -263 40 -66 89 -153 108 -194 l35 -74 30 59 c35 69 179 315 358 609 70 116 171 287 224 380 53 94 102 176 109 183 9 10 28 6 93 -17 323 -119 739 -132 1087 -35 141 39 406 171 536 268 126 94 310 252 310 267 0 4 -28 -11 -62 -35 -143 -99 -391 -204 -573 -241 -450 -92 -936 35 -1284 336 -106 91 -228 249 -299 387 -90 175 -129 293 -157 479 -38 257 4 562 109 798 25 55 26 61 11 70 -10 6 -36 24 -59 40 -22 17 -65 46 -94 64 l-53 34 -32 -31 c-119 -112 -363 -114 -489 -3 -20 17 -37 31 -39 31 -2 -1 -52 -31 -111 -68z m667 -2100 c55 -37 102 -68 104 -69 2 -1 -16 -35 -39 -75 -311 -530 -328 -558 -344 -558 -7 0 -35 37 -62 83 -26 45 -96 163 -155 262 -114 193 -164 284 -158 289 2 2 22 15 44 28 74 46 194 148 256 218 l61 69 97 -90 c53 -50 141 -121 196 -157z"/>   </g> </svg>